<?xml version="1.0" encoding="utf-8"?>
<!-- Generator: Adobe Illustrator 23.0.1, SVG Export Plug-In . SVG Version: 6.00 Build 0)  -->
<svg version="1.1" id="Capa_1" xmlns="http://www.w3.org/2000/svg" xmlns:xlink="http://www.w3.org/1999/xlink" x="0px" y="0px"
	 viewBox="0 0 82.4 50" style="enable-background:new 0 0 82.4 50;" xml:space="preserve">
<style type="text/css">
	.st0{fill:#D4145A;}
	.st1{fill:#FFFFFF;}
</style>
<g>
	<g>
		<path class="st0" d="M-11.8-170c0.5,0,0.5-0.7,0-0.7C-12.3-170.7-12.3-170-11.8-170L-11.8-170z"/>
	</g>
</g>
<g>
	<path class="st1" d="M35.3,12.2h-0.5v-4h2.4v0.4h-1.9V10H37v0.4h-1.7V12.2z"/>
	<path class="st1" d="M41,11.9c0.1,0,0.3,0,0.4-0.1c0.1,0,0.2-0.1,0.3-0.1c0.1-0.1,0.2-0.1,0.2-0.2c0.1-0.1,0.1-0.2,0.1-0.3
		c0-0.1,0-0.1,0-0.2c0-0.1,0-0.2,0-0.2V8.2h0.5v2.5c0,0.1,0,0.2,0,0.3c0,0.1,0,0.2,0,0.3c0,0.1-0.1,0.3-0.2,0.4S42.2,11.9,42,12
		c-0.1,0.1-0.3,0.2-0.4,0.2c-0.2,0.1-0.4,0.1-0.6,0.1c-0.2,0-0.4,0-0.6-0.1c-0.2,0-0.3-0.1-0.4-0.2c-0.1-0.1-0.2-0.2-0.3-0.3
		c-0.1-0.1-0.1-0.2-0.2-0.4c0-0.1-0.1-0.2-0.1-0.3s0-0.2,0-0.3V8.2h0.5v2.5c0,0.1,0,0.2,0,0.3c0,0.1,0,0.2,0.1,0.3
		c0.1,0.2,0.2,0.3,0.3,0.5C40.5,11.8,40.7,11.9,41,11.9z"/>
	<path class="st1" d="M47.2,10.5c0.2,0.4,0.5,0.7,0.7,1.1h0c0-0.4,0-0.8,0-1.2V8.2h0.5v4h-0.5L46.3,10c-0.3-0.4-0.5-0.7-0.7-1.1h0
		c0,0.4,0,0.8,0,1.3v2h-0.5v-4h0.5L47.2,10.5z"/>
	<path class="st1" d="M54.2,10.2c0,0.2,0,0.5-0.1,0.7c-0.1,0.2-0.1,0.4-0.3,0.6c-0.1,0.2-0.3,0.3-0.4,0.4s-0.4,0.2-0.6,0.3
		c-0.1,0-0.3,0.1-0.4,0.1c-0.2,0-0.3,0-0.5,0H51v-4h0.9c0.2,0,0.3,0,0.5,0c0.2,0,0.3,0,0.4,0.1c0.2,0.1,0.4,0.2,0.6,0.3
		c0.2,0.1,0.3,0.3,0.4,0.4C54,9.2,54,9.4,54.1,9.6C54.2,9.8,54.2,10,54.2,10.2z M53.7,10.2c0-0.4-0.1-0.7-0.3-0.9
		C53.3,9,53,8.9,52.7,8.8c-0.1,0-0.3-0.1-0.4-0.1c-0.1,0-0.3,0-0.5,0h-0.4v3.1h0.4c0.2,0,0.4,0,0.5,0c0.1,0,0.3,0,0.4-0.1
		c0.3-0.1,0.6-0.3,0.7-0.5C53.6,10.9,53.7,10.6,53.7,10.2z"/>
	<path class="st1" d="M56.2,12.2l1.6-4h0.4l1.6,4h-0.5L58.9,11h-1.7l-0.5,1.2H56.2z M58,8.9c-0.2,0.5-0.3,0.9-0.5,1.4l-0.1,0.4h1.3
		l-0.2-0.4C58.4,9.8,58.2,9.3,58,8.9L58,8.9z"/>
	<path class="st1" d="M63.9,8.6c-0.2,0-0.4,0-0.6,0.1c-0.2,0.1-0.4,0.2-0.5,0.3c-0.1,0.1-0.3,0.3-0.3,0.5c-0.1,0.2-0.1,0.5-0.1,0.7
		c0,0.3,0,0.5,0.1,0.7c0.1,0.2,0.2,0.4,0.3,0.5c0.1,0.1,0.3,0.2,0.5,0.3c0.2,0.1,0.4,0.1,0.7,0.1c0.1,0,0.1,0,0.2,0
		c0.1,0,0.1,0,0.2,0c0.1,0,0.1,0,0.2,0c0.1,0,0.1,0,0.2-0.1v0.4c-0.1,0-0.3,0.1-0.4,0.1c-0.2,0-0.3,0-0.5,0c-0.3,0-0.6,0-0.9-0.1
		c-0.3-0.1-0.5-0.2-0.6-0.4c-0.2-0.2-0.3-0.4-0.4-0.6c-0.1-0.2-0.1-0.5-0.1-0.8c0-0.3,0-0.6,0.1-0.9c0.1-0.3,0.2-0.5,0.4-0.7
		c0.2-0.2,0.4-0.3,0.6-0.4c0.3-0.1,0.5-0.2,0.9-0.2c0.1,0,0.2,0,0.2,0c0.1,0,0.2,0,0.2,0c0.1,0,0.1,0,0.2,0c0.1,0,0.1,0,0.2,0.1v0.4
		c-0.1,0-0.3-0.1-0.4-0.1C64.2,8.6,64.1,8.6,63.9,8.6z"/>
	<path class="st1" d="M67.2,12.2v-4h0.5v4H67.2z"/>
	<path class="st1" d="M73.8,10.2c0,0.3,0,0.6-0.1,0.8c-0.1,0.3-0.2,0.5-0.4,0.7c-0.2,0.2-0.4,0.3-0.6,0.4c-0.2,0.1-0.5,0.2-0.8,0.2
		c-0.3,0-0.6-0.1-0.8-0.2c-0.2-0.1-0.4-0.2-0.6-0.4c-0.2-0.2-0.3-0.4-0.4-0.7c-0.1-0.3-0.1-0.5-0.1-0.8c0-0.3,0-0.6,0.1-0.8
		c0.1-0.3,0.2-0.5,0.4-0.7c0.2-0.2,0.4-0.3,0.6-0.4c0.2-0.1,0.5-0.2,0.8-0.2c0.3,0,0.6,0.1,0.8,0.2c0.2,0.1,0.4,0.2,0.6,0.4
		c0.2,0.2,0.3,0.4,0.4,0.7C73.8,9.6,73.8,9.9,73.8,10.2z M73.3,10.2c0-0.3,0-0.5-0.1-0.7C73.1,9.3,73,9.1,72.9,9
		c-0.1-0.1-0.3-0.2-0.4-0.3c-0.2-0.1-0.3-0.1-0.5-0.1c-0.2,0-0.4,0-0.5,0.1C71.2,8.8,71.1,8.9,71,9c-0.1,0.1-0.2,0.3-0.3,0.5
		c-0.1,0.2-0.1,0.4-0.1,0.7s0,0.5,0.1,0.7c0.1,0.2,0.2,0.4,0.3,0.5c0.1,0.1,0.3,0.2,0.4,0.3c0.2,0.1,0.3,0.1,0.5,0.1
		c0.2,0,0.4,0,0.5-0.1c0.2-0.1,0.3-0.2,0.4-0.3c0.1-0.1,0.2-0.3,0.3-0.5C73.3,10.7,73.3,10.5,73.3,10.2z M72.7,7.3L72.1,8h-0.4
		l0.4-0.7H72.7z"/>
	<path class="st1" d="M78.3,10.5c0.2,0.4,0.5,0.7,0.7,1.1h0c0-0.4,0-0.8,0-1.2V8.2h0.5v4H79L77.4,10c-0.3-0.4-0.5-0.7-0.7-1.1h0
		c0,0.4,0,0.8,0,1.3v2h-0.5v-4h0.5L78.3,10.5z"/>
</g>
<image style="overflow:visible;" width="144" height="110" xlink:href="E7B87FE4.jpg"  transform="matrix(0.5447 0 0 0.5447 1.7978 -4.6474)">
</image>
</svg>
